<?xml version="1.0" standalone="no"?>
<!DOCTYPE svg PUBLIC "-//W3C//DTD SVG 20010904//EN"
 "http://www.w3.org/TR/2001/REC-SVG-20010904/DTD/svg10.dtd">
<svg version="1.0" xmlns="http://www.w3.org/2000/svg"
 width="100pt" height="100pt" viewBox="0 0 512.000000 512.000000"
 preserveAspectRatio="xMidYMid meet">
<metadata>
Created by potrace 1.16, written by Peter Selinger 2001-2019
</metadata>
<g transform="translate(0.000000,512.000000) scale(0.100000,-0.100000)"
fill="#000000" stroke="none">
<path d="M1663 3899 c-204 -13 -220 -18 -300 -102 -37 -40 -133 -154 -213
-255 l-144 -183 -60 3 -61 3 -5 60 -5 60 -40 7 c-22 4 -67 5 -100 2 -172 -15
-257 -79 -257 -192 0 -28 7 -55 19 -71 29 -40 103 -72 184 -80 l72 -6 -91 -68
c-120 -90 -229 -206 -278 -298 l-39 -74 2 -199 c2 -183 1 -201 -16 -213 -10
-7 -26 -28 -35 -47 -14 -30 -16 -90 -16 -496 l0 -462 38 -38 c48 -48 80 -53
347 -48 179 3 204 5 235 23 41 24 70 76 70 126 l0 36 148 5 c160 6 191 14 238
59 49 48 89 52 231 23 210 -41 701 -84 973 -84 272 0 763 43 973 84 142 29
182 25 231 -23 48 -46 79 -53 239 -59 l147 -4 0 -37 c0 -50 29 -102 70 -126
31 -18 56 -20 235 -23 268 -5 299 0 347 48 l39 38 -3 474 -3 475 -30 39 -30
39 0 190 0 190 -38 77 c-46 95 -154 212 -280 306 l-89 67 68 6 c138 13 204 62
204 150 0 116 -81 177 -255 193 -33 3 -78 2 -100 -2 l-40 -7 -5 -60 -5 -60
-61 -3 -60 -3 -144 183 c-80 101 -176 215 -213 255 -81 85 -90 88 -322 103
-175 11 -1593 11 -1772 -1z m1772 -59 c88 -6 176 -15 197 -20 45 -13 78 -48
286 -310 226 -284 247 -307 338 -365 91 -59 94 -65 94 -186 0 -69 0 -69 -27
-69 -73 0 -324 -81 -406 -131 -28 -16 -31 -16 -82 7 -105 48 -297 87 -570 116
-166 18 -1244 18 -1410 0 -273 -29 -465 -68 -570 -116 -51 -23 -54 -23 -82 -7
-82 50 -333 131 -405 131 -28 0 -28 0 -28 69 0 121 3 127 94 186 91 58 112 81
338 365 211 265 241 297 289 310 21 6 97 14 167 19 188 12 1591 13 1777 1z
m-2631 -406 c12 -4 16 -20 16 -54 0 -63 17 -80 81 -80 l49 0 -16 -25 c-9 -13
-32 -34 -50 -46 -31 -19 -46 -21 -147 -17 -86 3 -121 8 -152 23 -36 18 -40 24
-43 63 -4 54 14 83 64 107 52 24 166 41 198 29z m3679 -17 c22 -6 52 -23 69
-38 26 -25 29 -34 26 -76 -3 -45 -6 -49 -43 -68 -31 -15 -66 -20 -152 -23
-101 -4 -116 -2 -147 17 -18 12 -41 33 -50 46 l-16 25 49 0 c64 0 81 17 81 80
0 29 5 50 13 54 17 7 123 -3 170 -17z m-3773 -447 l0 -70 -46 0 c-36 0 -51 -6
-73 -28 -29 -28 -71 -126 -71 -165 0 -32 -9 -39 -67 -64 -51 -20 -53 -21 -53
-3 0 37 41 126 84 185 34 46 209 214 224 215 1 0 2 -31 2 -70z m3808 -21 c106
-90 202 -237 202 -309 0 -18 -2 -17 -52 3 -59 25 -68 32 -68 64 0 39 -42 137
-71 165 -22 22 -37 28 -73 28 l-46 0 0 72 0 71 23 -19 c12 -11 51 -45 85 -75z
m-3688 -125 c107 -20 248 -66 324 -107 33 -17 86 -58 117 -89 54 -55 137 -193
124 -206 -4 -4 -104 -9 -223 -11 -172 -2 -236 0 -307 14 -261 48 -348 176
-254 373 l21 42 58 0 c32 0 95 -7 140 -16z m2305 6 c208 -14 320 -27 462 -56
102 -20 217 -55 232 -69 2 -2 -20 -30 -48 -62 -58 -65 -131 -200 -131 -243 0
-36 6 -37 215 -50 403 -24 649 47 721 209 16 37 21 41 44 36 14 -4 40 -16 58
-27 l33 -20 -5 -77 c-4 -42 -13 -188 -22 -326 -16 -261 -40 -557 -50 -612 -5
-27 -12 -33 -47 -41 -50 -13 -246 -36 -252 -30 -2 2 20 22 50 45 114 89 175
204 160 302 -3 25 -6 79 -5 118 1 86 -18 136 -59 153 -24 10 -39 7 -112 -23
-93 -38 -242 -76 -422 -107 -66 -11 -123 -23 -128 -26 -12 -7 -11 -190 2 -237
17 -61 41 -71 172 -65 112 6 389 56 454 83 l33 14 -21 -42 c-29 -56 -111 -133
-198 -184 l-71 -43 -118 0 c-172 0 -238 12 -276 49 -34 33 -102 61 -147 61
-16 0 -69 -9 -117 -19 -216 -48 -641 -84 -982 -84 -341 0 -766 36 -982 84 -48
10 -101 19 -117 19 -45 0 -113 -28 -147 -61 -38 -37 -104 -49 -276 -49 l-118
0 -71 43 c-87 51 -169 128 -198 184 l-21 42 33 -14 c65 -27 342 -77 454 -83
131 -6 155 4 172 65 13 47 14 230 2 237 -5 3 -62 15 -128 26 -168 28 -324 68
-422 107 -73 29 -88 32 -112 23 -41 -17 -60 -67 -59 -153 0 -39 -2 -97 -6
-127 -11 -102 59 -224 176 -305 22 -15 38 -30 36 -33 -6 -6 -200 17 -253 30
-35 8 -42 14 -47 41 -10 55 -34 351 -50 612 -9 138 -18 284 -22 326 l-5 77 33
20 c18 11 45 23 59 27 24 6 28 3 39 -29 16 -50 86 -118 152 -149 125 -59 322
-82 573 -67 209 13 215 14 215 50 0 43 -73 178 -131 243 -28 32 -50 60 -48 62
15 14 130 49 232 69 136 28 262 43 442 55 176 12 996 12 1170 1z m1374 -32
c94 -197 7 -325 -254 -373 -71 -14 -135 -16 -307 -14 -119 2 -219 7 -223 11
-13 13 70 151 124 206 31 31 83 71 116 89 121 64 334 121 457 122 l66 1 21
-42z m-4124 -923 c23 -310 34 -385 60 -411 27 -26 88 -40 242 -54 65 -6 142
-14 172 -17 l53 -5 -5 -41 c-10 -75 -16 -77 -285 -77 -228 0 -236 1 -259 22
l-23 21 0 443 c0 587 8 609 45 119z m4395 -114 c0 -443 0 -445 -22 -468 -21
-23 -24 -23 -259 -23 -270 0 -276 2 -286 77 l-5 41 53 6 c30 3 95 8 144 12
115 7 231 29 261 49 26 17 38 67 54 225 10 106 40 498 40 535 0 17 2 17 10 5
6 -9 10 -190 10 -459z m-4069 245 c79 -36 219 -74 387 -105 l147 -27 -2 -65
c-5 -107 -10 -126 -39 -132 -56 -10 -378 39 -490 75 -51 17 -76 66 -82 163 -4
61 6 115 22 115 2 0 28 -11 57 -24z m3770 2 c17 -31 6 -156 -17 -204 -22 -46
-40 -53 -218 -89 -135 -27 -292 -45 -330 -38 -29 6 -34 25 -39 132 l-2 65 147
27 c168 31 310 69 383 104 63 29 62 29 76 3z"/>
<path d="M1792 3810 c-152 -11 -256 -26 -291 -44 -68 -35 -424 -444 -419 -480
3 -24 -11 -24 683 -6 215 5 572 10 795 10 223 0 581 -5 795 -10 694 -18 680
-18 683 6 4 25 -168 235 -313 381 -111 112 -113 113 -270 134 -109 14 -1479
21 -1663 9z m1513 -60 c239 -15 279 -24 333 -74 40 -37 314 -348 309 -352 -1
-1 -123 3 -272 9 -349 13 -1881 13 -2230 0 -148 -6 -271 -10 -272 -9 -5 4 269
315 309 352 52 49 101 60 309 73 186 12 1330 12 1514 1z"/>
<path d="M1613 2666 c-65 -29 -74 -109 -26 -216 79 -174 167 -206 588 -217
323 -8 325 -7 325 219 0 138 -6 161 -50 195 -24 19 -72 22 -450 28 -293 4
-361 2 -387 -9z m805 -72 c21 -14 22 -21 22 -144 0 -104 -3 -132 -16 -144 -30
-31 -501 -16 -624 20 -77 22 -114 54 -148 126 -42 90 -48 125 -25 150 18 20
24 20 393 13 298 -6 380 -10 398 -21z"/>
<path d="M2940 2670 c-263 -5 -272 -7 -304 -61 -13 -21 -16 -55 -16 -159 0
-209 12 -220 237 -220 185 1 370 15 462 35 120 28 190 99 232 236 26 84 13
134 -41 161 -38 20 -63 20 -570 8z m555 -74 c19 -29 14 -56 -27 -144 -34 -72
-71 -104 -148 -126 -73 -21 -258 -36 -452 -36 -129 0 -159 3 -172 16 -24 23
-23 265 1 285 16 14 191 22 605 27 177 2 178 2 193 -22z"/>
<path d="M1895 2000 c-208 -15 -270 -33 -320 -92 -60 -71 -79 -151 -50 -207
63 -123 255 -151 1035 -151 780 0 972 28 1035 151 22 41 18 88 -11 147 -48 96
-97 124 -258 144 -102 13 -1270 19 -1431 8z m1305 -60 c96 -6 193 -15 215 -20
51 -11 121 -85 131 -138 27 -141 -154 -172 -989 -172 -825 0 -1006 31 -984
167 7 38 46 94 88 125 37 27 178 40 549 47 416 8 762 4 990 -9z"/>
</g>
</svg>
